<?xml version="1.0" encoding="UTF-8" standalone="no"?>
<!DOCTYPE svg PUBLIC "-//W3C//DTD SVG 1.1//EN"
 "http://www.w3.org/Graphics/SVG/1.1/DTD/svg11.dtd">
<!-- Generated by graphviz version 2.47.0 (20210316.0004)
 -->
<!-- Title: dependencies Pages: 1 -->
<svg width="544pt" height="211pt"
 viewBox="0.00 0.00 544.00 211.00" xmlns="http://www.w3.org/2000/svg" xmlns:xlink="http://www.w3.org/1999/xlink">
<g id="graph0" class="graph" transform="scale(1 1) rotate(0) translate(4 207)">
<title>dependencies</title>
<polygon fill="white" stroke="transparent" points="-4,4 -4,-207 540,-207 540,4 -4,4"/>
<text text-anchor="start" x="247.01" y="-42.4" font-family="Times-12" font-weight="bold" font-size="14.00">Legend</text>
<polygon fill="#ffffb3" stroke="transparent" points="34,-10 34,-30 54,-30 54,-10 34,-10"/>
<text text-anchor="start" x="57.63" y="-15.4" font-family="Times-12" font-size="14.00"> &#160;Declarations</text>
<polygon fill="#8dd3c7" stroke="transparent" points="147,-10 147,-30 167,-30 167,-10 147,-10"/>
<text text-anchor="start" x="170.73" y="-15.4" font-family="Times-12" font-size="14.00"> &#160;Module</text>
<polygon fill="#80b1d3" stroke="transparent" points="233,-10 233,-30 253,-30 253,-10 233,-10"/>
<text text-anchor="start" x="256.78" y="-15.4" font-family="Times-12" font-size="14.00"> &#160;Bootstrap</text>
<polygon fill="#fdb462" stroke="transparent" points="330,-10 330,-30 350,-30 350,-10 330,-10"/>
<text text-anchor="start" x="353.67" y="-15.4" font-family="Times-12" font-size="14.00"> &#160;Providers</text>
<polygon fill="#fb8072" stroke="transparent" points="426,-10 426,-30 446,-30 446,-10 426,-10"/>
<text text-anchor="start" x="449.73" y="-15.4" font-family="Times-12" font-size="14.00"> &#160;Exports</text>
<g id="clust1" class="cluster">
<title>cluster_CoreModule</title>
<polygon fill="none" stroke="black" stroke-dasharray="1,5" points="8,-70 8,-195 528,-195 528,-70 8,-70"/>
</g>
<g id="clust6" class="cluster">
<title>cluster_CoreModule_providers</title>
<polygon fill="none" stroke="black" points="16,-78 16,-130 520,-130 520,-78 16,-78"/>
</g>
<!-- AuthService -->
<g id="node1" class="node">
<title>AuthService</title>
<ellipse fill="#fdb462" stroke="black" cx="453" cy="-104" rx="59.11" ry="18"/>
<text text-anchor="middle" x="453" y="-99.8" font-family="Times,serif" font-size="14.00">AuthService</text>
</g>
<!-- CoreModule -->
<g id="node4" class="node">
<title>CoreModule</title>
<polygon fill="#8dd3c7" stroke="black" points="343.26,-187 340.26,-191 319.26,-191 316.26,-187 256.74,-187 256.74,-151 343.26,-151 343.26,-187"/>
<text text-anchor="middle" x="300" y="-164.8" font-family="Times,serif" font-size="14.00">CoreModule</text>
</g>
<!-- AuthService&#45;&gt;CoreModule -->
<g id="edge1" class="edge">
<title>AuthService&#45;&gt;CoreModule</title>
<path fill="none" stroke="black" d="M453,-122.11C453,-141.34 453,-169 453,-169 453,-169 353.43,-169 353.43,-169"/>
<polygon fill="black" stroke="black" points="353.43,-165.5 343.43,-169 353.43,-172.5 353.43,-165.5"/>
</g>
<!-- HttpBaseService -->
<g id="node2" class="node">
<title>HttpBaseService</title>
<ellipse fill="#fdb462" stroke="black" cx="300" cy="-104" rx="75.86" ry="18"/>
<text text-anchor="middle" x="300" y="-99.8" font-family="Times,serif" font-size="14.00">HttpBaseService</text>
</g>
<!-- HttpBaseService&#45;&gt;CoreModule -->
<g id="edge2" class="edge">
<title>HttpBaseService&#45;&gt;CoreModule</title>
<path fill="none" stroke="black" d="M300,-122.11C300,-122.11 300,-140.99 300,-140.99"/>
<polygon fill="black" stroke="black" points="296.5,-140.99 300,-150.99 303.5,-140.99 296.5,-140.99"/>
</g>
<!-- LocalStorageService -->
<g id="node3" class="node">
<title>LocalStorageService</title>
<ellipse fill="#fdb462" stroke="black" cx="115" cy="-104" rx="91.45" ry="18"/>
<text text-anchor="middle" x="115" y="-99.8" font-family="Times,serif" font-size="14.00">LocalStorageService</text>
</g>
<!-- LocalStorageService&#45;&gt;CoreModule -->
<g id="edge3" class="edge">
<title>LocalStorageService&#45;&gt;CoreModule</title>
<path fill="none" stroke="black" d="M115,-122.11C115,-141.34 115,-169 115,-169 115,-169 246.63,-169 246.63,-169"/>
<polygon fill="black" stroke="black" points="246.63,-172.5 256.63,-169 246.63,-165.5 246.63,-172.5"/>
</g>
</g>
</svg>
