<?xml version="1.0" encoding="UTF-8" standalone="no"?>
<!DOCTYPE svg PUBLIC "-//W3C//DTD SVG 1.1//EN"
 "http://www.w3.org/Graphics/SVG/1.1/DTD/svg11.dtd">
<!-- Generated by graphviz version 2.47.0 (20210316.0004)
 -->
<!-- Title: dependencies Pages: 1 -->
<svg width="920pt" height="211pt"
 viewBox="0.00 0.00 920.00 211.00" xmlns="http://www.w3.org/2000/svg" xmlns:xlink="http://www.w3.org/1999/xlink">
<g id="graph0" class="graph" transform="scale(1 1) rotate(0) translate(4 207)">
<title>dependencies</title>
<polygon fill="white" stroke="transparent" points="-4,4 -4,-207 916,-207 916,4 -4,4"/>
<text text-anchor="start" x="435.01" y="-42.4" font-family="Times-12" font-weight="bold" font-size="14.00">Legend</text>
<polygon fill="#ffffb3" stroke="transparent" points="222,-10 222,-30 242,-30 242,-10 222,-10"/>
<text text-anchor="start" x="245.63" y="-15.4" font-family="Times-12" font-size="14.00"> &#160;Declarations</text>
<polygon fill="#8dd3c7" stroke="transparent" points="335,-10 335,-30 355,-30 355,-10 335,-10"/>
<text text-anchor="start" x="358.73" y="-15.4" font-family="Times-12" font-size="14.00"> &#160;Module</text>
<polygon fill="#80b1d3" stroke="transparent" points="421,-10 421,-30 441,-30 441,-10 421,-10"/>
<text text-anchor="start" x="444.78" y="-15.4" font-family="Times-12" font-size="14.00"> &#160;Bootstrap</text>
<polygon fill="#fdb462" stroke="transparent" points="518,-10 518,-30 538,-30 538,-10 518,-10"/>
<text text-anchor="start" x="541.67" y="-15.4" font-family="Times-12" font-size="14.00"> &#160;Providers</text>
<polygon fill="#fb8072" stroke="transparent" points="614,-10 614,-30 634,-30 634,-10 614,-10"/>
<text text-anchor="start" x="637.73" y="-15.4" font-family="Times-12" font-size="14.00"> &#160;Exports</text>
<g id="clust1" class="cluster">
<title>cluster_TasksModule</title>
<polygon fill="none" stroke="black" stroke-dasharray="1,5" points="8,-70 8,-195 904,-195 904,-70 8,-70"/>
</g>
<g id="clust6" class="cluster">
<title>cluster_TasksModule_providers</title>
<polygon fill="none" stroke="black" points="758,-78 758,-130 896,-130 896,-78 758,-78"/>
</g>
<g id="clust3" class="cluster">
<title>cluster_TasksModule_imports</title>
<polygon fill="none" stroke="black" points="16,-78 16,-130 750,-130 750,-78 16,-78"/>
</g>
<!-- TaskEditDialog -->
<g id="node1" class="node">
<title>TaskEditDialog</title>
<polygon fill="#8dd3c7" stroke="black" points="742.15,-122 739.15,-126 718.15,-126 715.15,-122 637.85,-122 637.85,-86 742.15,-86 742.15,-122"/>
<text text-anchor="middle" x="690" y="-99.8" font-family="Times,serif" font-size="14.00">TaskEditDialog</text>
</g>
<!-- TasksModule -->
<g id="node6" class="node">
<title>TasksModule</title>
<polygon fill="#8dd3c7" stroke="black" points="518.21,-187 515.21,-191 494.21,-191 491.21,-187 425.79,-187 425.79,-151 518.21,-151 518.21,-187"/>
<text text-anchor="middle" x="472" y="-164.8" font-family="Times,serif" font-size="14.00">TasksModule</text>
</g>
<!-- TaskEditDialog&#45;&gt;TasksModule -->
<g id="edge1" class="edge">
<title>TaskEditDialog&#45;&gt;TasksModule</title>
<path fill="none" stroke="black" d="M690,-122.02C690,-139.37 690,-163 690,-163 690,-163 528.23,-163 528.23,-163"/>
<polygon fill="black" stroke="black" points="528.23,-159.5 518.23,-163 528.23,-166.5 528.23,-159.5"/>
</g>
<!-- TaskFormComponent -->
<g id="node2" class="node">
<title>TaskFormComponent</title>
<polygon fill="#8dd3c7" stroke="black" points="619.38,-122 616.38,-126 595.38,-126 592.38,-122 480.62,-122 480.62,-86 619.38,-86 619.38,-122"/>
<text text-anchor="middle" x="550" y="-99.8" font-family="Times,serif" font-size="14.00">TaskFormComponent</text>
</g>
<!-- TaskFormComponent&#45;&gt;TasksModule -->
<g id="edge2" class="edge">
<title>TaskFormComponent&#45;&gt;TasksModule</title>
<path fill="none" stroke="black" d="M499.33,-122.11C499.33,-122.11 499.33,-140.99 499.33,-140.99"/>
<polygon fill="black" stroke="black" points="495.83,-140.99 499.33,-150.99 502.83,-140.99 495.83,-140.99"/>
</g>
<!-- TaskItemComponent -->
<g id="node3" class="node">
<title>TaskItemComponent</title>
<polygon fill="#8dd3c7" stroke="black" points="462.2,-122 459.2,-126 438.2,-126 435.2,-122 327.8,-122 327.8,-86 462.2,-86 462.2,-122"/>
<text text-anchor="middle" x="395" y="-99.8" font-family="Times,serif" font-size="14.00">TaskItemComponent</text>
</g>
<!-- TaskItemComponent&#45;&gt;TasksModule -->
<g id="edge3" class="edge">
<title>TaskItemComponent&#45;&gt;TasksModule</title>
<path fill="none" stroke="black" d="M444,-122.11C444,-122.11 444,-140.99 444,-140.99"/>
<polygon fill="black" stroke="black" points="440.5,-140.99 444,-150.99 447.5,-140.99 440.5,-140.99"/>
</g>
<!-- TaskListComponent -->
<g id="node4" class="node">
<title>TaskListComponent</title>
<polygon fill="#8dd3c7" stroke="black" points="310.32,-122 307.32,-126 286.32,-126 283.32,-122 179.68,-122 179.68,-86 310.32,-86 310.32,-122"/>
<text text-anchor="middle" x="245" y="-99.8" font-family="Times,serif" font-size="14.00">TaskListComponent</text>
</g>
<!-- TaskListComponent&#45;&gt;TasksModule -->
<g id="edge4" class="edge">
<title>TaskListComponent&#45;&gt;TasksModule</title>
<path fill="none" stroke="black" d="M245,-122.02C245,-139.37 245,-163 245,-163 245,-163 415.79,-163 415.79,-163"/>
<polygon fill="black" stroke="black" points="415.79,-166.5 425.79,-163 415.79,-159.5 415.79,-166.5"/>
</g>
<!-- TasksRoutingModule -->
<g id="node5" class="node">
<title>TasksRoutingModule</title>
<polygon fill="#8dd3c7" stroke="black" points="161.82,-122 158.82,-126 137.82,-126 134.82,-122 24.18,-122 24.18,-86 161.82,-86 161.82,-122"/>
<text text-anchor="middle" x="93" y="-99.8" font-family="Times,serif" font-size="14.00">TasksRoutingModule</text>
</g>
<!-- TasksRoutingModule&#45;&gt;TasksModule -->
<g id="edge5" class="edge">
<title>TasksRoutingModule&#45;&gt;TasksModule</title>
<path fill="none" stroke="black" d="M93,-122.28C93,-143.32 93,-175 93,-175 93,-175 415.53,-175 415.53,-175"/>
<polygon fill="black" stroke="black" points="415.53,-178.5 425.53,-175 415.53,-171.5 415.53,-178.5"/>
</g>
<!-- TasksFacade -->
<g id="node7" class="node">
<title>TasksFacade</title>
<ellipse fill="#fdb462" stroke="black" cx="827" cy="-104" rx="60.81" ry="18"/>
<text text-anchor="middle" x="827" y="-99.8" font-family="Times,serif" font-size="14.00">TasksFacade</text>
</g>
<!-- TasksFacade&#45;&gt;TasksModule -->
<g id="edge6" class="edge">
<title>TasksFacade&#45;&gt;TasksModule</title>
<path fill="none" stroke="black" d="M827,-122.28C827,-143.32 827,-175 827,-175 827,-175 528.41,-175 528.41,-175"/>
<polygon fill="black" stroke="black" points="528.41,-171.5 518.41,-175 528.41,-178.5 528.41,-171.5"/>
</g>
</g>
</svg>
