<?xml version="1.0" encoding="UTF-8" standalone="no"?>
<!DOCTYPE svg PUBLIC "-//W3C//DTD SVG 1.1//EN"
 "http://www.w3.org/Graphics/SVG/1.1/DTD/svg11.dtd">
<!-- Generated by graphviz version 2.47.0 (20210316.0004)
 -->
<!-- Title: dependencies Pages: 1 -->
<svg width="556pt" height="284pt"
 viewBox="0.00 0.00 556.00 284.00" xmlns="http://www.w3.org/2000/svg" xmlns:xlink="http://www.w3.org/1999/xlink">
<g id="graph0" class="graph" transform="scale(1 1) rotate(0) translate(4 280)">
<title>dependencies</title>
<polygon fill="white" stroke="transparent" points="-4,4 -4,-280 552,-280 552,4 -4,4"/>
<text text-anchor="start" x="253.01" y="-42.4" font-family="Times-12" font-weight="bold" font-size="14.00">Legend</text>
<polygon fill="#ffffb3" stroke="transparent" points="40,-10 40,-30 60,-30 60,-10 40,-10"/>
<text text-anchor="start" x="63.63" y="-15.4" font-family="Times-12" font-size="14.00"> &#160;Declarations</text>
<polygon fill="#8dd3c7" stroke="transparent" points="153,-10 153,-30 173,-30 173,-10 153,-10"/>
<text text-anchor="start" x="176.73" y="-15.4" font-family="Times-12" font-size="14.00"> &#160;Module</text>
<polygon fill="#80b1d3" stroke="transparent" points="239,-10 239,-30 259,-30 259,-10 239,-10"/>
<text text-anchor="start" x="262.78" y="-15.4" font-family="Times-12" font-size="14.00"> &#160;Bootstrap</text>
<polygon fill="#fdb462" stroke="transparent" points="336,-10 336,-30 356,-30 356,-10 336,-10"/>
<text text-anchor="start" x="359.67" y="-15.4" font-family="Times-12" font-size="14.00"> &#160;Providers</text>
<polygon fill="#fb8072" stroke="transparent" points="432,-10 432,-30 452,-30 452,-10 432,-10"/>
<text text-anchor="start" x="455.73" y="-15.4" font-family="Times-12" font-size="14.00"> &#160;Exports</text>
<g id="clust1" class="cluster">
<title>cluster_SharedModule</title>
<polygon fill="none" stroke="black" stroke-dasharray="1,5" points="8,-70 8,-268 540,-268 540,-70 8,-70"/>
</g>
<g id="clust3" class="cluster">
<title>cluster_SharedModule_imports</title>
<polygon fill="none" stroke="black" points="22,-78 22,-130 526,-130 526,-78 22,-78"/>
</g>
<g id="clust4" class="cluster">
<title>cluster_SharedModule_exports</title>
<polygon fill="none" stroke="black" points="16,-208 16,-260 532,-260 532,-208 16,-208"/>
</g>
<!-- ConfirmDialogComponent -->
<g id="node1" class="node">
<title>ConfirmDialogComponent</title>
<polygon fill="#8dd3c7" stroke="black" points="518.37,-122 515.37,-126 494.37,-126 491.37,-122 351.63,-122 351.63,-86 518.37,-86 518.37,-122"/>
<text text-anchor="middle" x="435" y="-99.8" font-family="Times,serif" font-size="14.00">ConfirmDialogComponent</text>
</g>
<!-- SharedModule -->
<g id="node4" class="node">
<title>SharedModule</title>
<polygon fill="#8dd3c7" stroke="black" points="329.42,-187 326.42,-191 305.42,-191 302.42,-187 230.58,-187 230.58,-151 329.42,-151 329.42,-187"/>
<text text-anchor="middle" x="280" y="-164.8" font-family="Times,serif" font-size="14.00">SharedModule</text>
</g>
<!-- ConfirmDialogComponent&#45;&gt;SharedModule -->
<g id="edge1" class="edge">
<title>ConfirmDialogComponent&#45;&gt;SharedModule</title>
<path fill="none" stroke="black" d="M463.56,-122.02C463.56,-139.37 463.56,-163 463.56,-163 463.56,-163 339.67,-163 339.67,-163"/>
<polygon fill="black" stroke="black" points="339.67,-159.5 329.67,-163 339.67,-166.5 339.67,-159.5"/>
</g>
<!-- DateFormatPipe -->
<g id="node2" class="node">
<title>DateFormatPipe</title>
<polygon fill="#8dd3c7" stroke="black" points="333.75,-122 330.75,-126 309.75,-126 306.75,-122 226.25,-122 226.25,-86 333.75,-86 333.75,-122"/>
<text text-anchor="middle" x="280" y="-99.8" font-family="Times,serif" font-size="14.00">DateFormatPipe</text>
</g>
<!-- DateFormatPipe&#45;&gt;SharedModule -->
<g id="edge2" class="edge">
<title>DateFormatPipe&#45;&gt;SharedModule</title>
<path fill="none" stroke="black" d="M280,-122.11C280,-122.11 280,-140.99 280,-140.99"/>
<polygon fill="black" stroke="black" points="276.5,-140.99 280,-150.99 283.5,-140.99 276.5,-140.99"/>
</g>
<!-- LoadingIndicatorComponent -->
<g id="node3" class="node">
<title>LoadingIndicatorComponent</title>
<polygon fill="#8dd3c7" stroke="black" points="208.02,-122 205.02,-126 184.02,-126 181.02,-122 29.98,-122 29.98,-86 208.02,-86 208.02,-122"/>
<text text-anchor="middle" x="119" y="-99.8" font-family="Times,serif" font-size="14.00">LoadingIndicatorComponent</text>
</g>
<!-- LoadingIndicatorComponent&#45;&gt;SharedModule -->
<g id="edge3" class="edge">
<title>LoadingIndicatorComponent&#45;&gt;SharedModule</title>
<path fill="none" stroke="black" d="M147.25,-122.02C147.25,-139.37 147.25,-163 147.25,-163 147.25,-163 220.57,-163 220.57,-163"/>
<polygon fill="black" stroke="black" points="220.57,-166.5 230.57,-163 220.57,-159.5 220.57,-166.5"/>
</g>
<!-- ConfirmDialogComponent  -->
<g id="node5" class="node">
<title>ConfirmDialogComponent </title>
<polygon fill="#fb8072" stroke="black" points="524.37,-252 353.63,-252 353.63,-216 524.37,-216 524.37,-252"/>
<text text-anchor="middle" x="439" y="-229.8" font-family="Times,serif" font-size="14.00">ConfirmDialogComponent </text>
</g>
<!-- SharedModule&#45;&gt;ConfirmDialogComponent  -->
<g id="edge4" class="edge">
<title>SharedModule&#45;&gt;ConfirmDialogComponent </title>
<path fill="none" stroke="black" stroke-dasharray="5,2" d="M329.39,-175C365.68,-175 408.69,-175 408.69,-175 408.69,-175 408.69,-205.98 408.69,-205.98"/>
<polygon fill="black" stroke="black" points="405.19,-205.98 408.69,-215.98 412.19,-205.98 405.19,-205.98"/>
</g>
<!-- DateFormatPipe  -->
<g id="node6" class="node">
<title>DateFormatPipe </title>
<polygon fill="#fb8072" stroke="black" points="335.75,-252 224.25,-252 224.25,-216 335.75,-216 335.75,-252"/>
<text text-anchor="middle" x="280" y="-229.8" font-family="Times,serif" font-size="14.00">DateFormatPipe </text>
</g>
<!-- SharedModule&#45;&gt;DateFormatPipe  -->
<g id="edge5" class="edge">
<title>SharedModule&#45;&gt;DateFormatPipe </title>
<path fill="none" stroke="black" stroke-dasharray="5,2" d="M280,-187.11C280,-187.11 280,-205.99 280,-205.99"/>
<polygon fill="black" stroke="black" points="276.5,-205.99 280,-215.99 283.5,-205.99 276.5,-205.99"/>
</g>
<!-- LoadingIndicatorComponent  -->
<g id="node7" class="node">
<title>LoadingIndicatorComponent </title>
<polygon fill="#fb8072" stroke="black" points="206.02,-252 23.98,-252 23.98,-216 206.02,-216 206.02,-252"/>
<text text-anchor="middle" x="115" y="-229.8" font-family="Times,serif" font-size="14.00">LoadingIndicatorComponent </text>
</g>
<!-- SharedModule&#45;&gt;LoadingIndicatorComponent  -->
<g id="edge6" class="edge">
<title>SharedModule&#45;&gt;LoadingIndicatorComponent </title>
<path fill="none" stroke="black" stroke-dasharray="5,2" d="M230.68,-175C173.94,-175 88.5,-175 88.5,-175 88.5,-175 88.5,-205.98 88.5,-205.98"/>
<polygon fill="black" stroke="black" points="85,-205.98 88.5,-215.98 92,-205.98 85,-205.98"/>
</g>
</g>
</svg>
